<svg width="77" height="77" viewBox="0 0 77 77" fill="none" xmlns="http://www.w3.org/2000/svg">
<circle cx="38.5" cy="38.5" r="38.5" fill="#CA0012"/>
<path d="M51.8894 25.9462C51.8894 25.9462 51.0619 26.1901 49.8797 26.1901C47.279 26.1901 43.6143 25.2144 40.4224 20.4574C40.0678 19.8475 39.122 19.8475 38.7674 20.4574C34.9844 26.1901 29.5465 26.8 27.3004 25.9462C26.7093 25.7022 26 26.1899 26 26.9217V36.5578C26 49.9748 39.122 53.878 39.2403 54C39.3585 54 39.3585 54 39.4767 54C39.5949 54 39.5949 54 39.7131 54C39.8313 54 52.9533 50.0968 52.9533 36.5578V26.9217C53.1898 26.3119 52.4805 25.7022 51.8894 25.9462Z" stroke="white" stroke-miterlimit="10" stroke-linecap="round" stroke-linejoin="round"/>
</svg>
