<svg width="77" height="77" viewBox="0 0 77 77" fill="none" xmlns="http://www.w3.org/2000/svg">
<circle cx="38.5" cy="38.5" r="38.5" fill="#CA0012"/>
<path d="M56.6376 41.1152C44.087 28.6853 46.6213 31.2196 38.7771 23.3754C38.2944 22.8927 37.691 23.0134 36.8462 23.0134L23.3302 23.1341C22.6061 23.1341 22.0027 23.7375 22.0027 24.4616L22.1234 38.943C22.1234 39.3051 22.2441 39.6671 22.4855 39.9084C22.7268 40.1498 40.3459 57.6483 40.708 57.8896C41.3114 58.131 41.7941 58.0103 42.1561 57.6483L56.5169 43.1668C57.1203 42.4427 57.1203 41.598 56.6376 41.1152Z" stroke="white" stroke-miterlimit="10" stroke-linecap="round" stroke-linejoin="round"/>
<path d="M29.8469 33.9951C31.5798 33.9951 32.9845 32.5903 32.9845 30.8575C32.9845 29.1246 31.5798 27.7198 29.8469 27.7198C28.114 27.7198 26.7093 29.1246 26.7093 30.8575C26.7093 32.5903 28.114 33.9951 29.8469 33.9951Z" stroke="white" stroke-miterlimit="10" stroke-linecap="round" stroke-linejoin="round"/>
<path d="M43.1215 48.9593C41.9148 50.1661 40.2252 50.2868 39.2598 49.3214C38.2944 48.3559 38.415 46.6664 39.6218 45.4596C40.8286 44.2528 42.5181 44.1322 43.4836 45.0976C44.5697 46.063 44.3283 47.8732 43.1215 48.9593Z" stroke="white" stroke-linecap="round" stroke-linejoin="round"/>
<path d="M42.6388 39.0637C41.432 40.2705 39.7426 40.3911 38.7771 39.4257C37.8117 38.4603 37.9324 36.7708 39.1392 35.564C40.346 34.3573 42.0355 34.2365 43.0009 35.2019C43.9663 36.1674 43.7249 37.8569 42.6388 39.0637Z" stroke="white" stroke-linecap="round" stroke-linejoin="round"/>
<path d="M48.5521 40.9946L33.5879 43.4082" stroke="white" stroke-linecap="round" stroke-linejoin="round"/>
</svg>
