<svg width="18" height="18" viewBox="0 0 18 18" fill="none" xmlns="http://www.w3.org/2000/svg">
<path d="M12.8082 10.2009C12.6821 10.0749 12.4301 10.0749 12.241 10.2009C12.241 10.2009 11.1697 11.2721 11.0436 11.3351L10.9806 11.3982C9.84626 11.9654 5.68697 7.55408 6.50623 6.73483L7.7036 5.60045C7.82964 5.47441 7.82964 5.22224 7.7036 5.03318L3.85941 1.12601C3.79639 1.06299 3.67035 1 3.60733 1C3.48129 1 3.41827 1.06299 3.35525 1.12601C1.40165 3.01659 -1.6863 4.90714 5.56094 12.2804C12.6821 19.5277 14.6988 16.8179 16.7154 14.6752C16.8414 14.5492 16.8414 14.297 16.7154 14.171L12.8082 10.2009Z" stroke="#212529" stroke-miterlimit="10" stroke-linecap="round" stroke-linejoin="round"/>
</svg>
