<svg width="41" height="41" viewBox="0 0 41 41" fill="none" xmlns="http://www.w3.org/2000/svg">
<path d="M40.4755 12.2255H21.524C21.3877 12.2252 21.2569 12.1171 21.1591 11.9241C21.0574 11.7233 21 11.4474 21 11.1591C21 10.8709 21.0574 10.5949 21.1591 10.3941C21.2569 10.2011 21.3877 10.093 21.524 10.0927H40.4755C40.6117 10.093 40.7426 10.2011 40.8404 10.3941C40.9412 10.5962 40.9986 10.8713 41 11.1591C40.9884 11.738 40.7602 12.2019 40.4755 12.2255Z" fill="#CA0012"/>
<path d="M40.4755 30.1103H21.5245C21.2398 30.0866 21.0116 29.6225 21 29.0433C21.0014 28.7553 21.0588 28.4802 21.1596 28.2779C21.2574 28.0848 21.3883 27.9767 21.5245 27.9764H40.4755C40.6117 27.9767 40.7426 28.0848 40.8404 28.2779C40.9412 28.4802 40.9986 28.7553 41 29.0433C40.9884 29.6225 40.7602 30.0866 40.4755 30.1103Z" fill="#CA0012"/>
<path d="M40.4755 21.1672H21.5245C21.3858 21.1688 21.2532 21.0509 21.1596 20.8426C21.0595 20.6491 21.0019 20.3817 21 20.1008C21.0019 19.8199 21.0595 19.5524 21.1596 19.3589C21.2532 19.1507 21.3858 19.0327 21.5245 19.0344H40.4755C40.6142 19.0327 40.7468 19.1507 40.8403 19.3589C40.9405 19.5524 40.9981 19.8199 41 20.1008C41.0012 20.3897 40.9434 20.6667 40.8403 20.8658C40.7448 21.0655 40.6125 21.1748 40.4755 21.1672Z" fill="#CA0012"/>
</svg>
