<svg width="22" height="22" viewBox="0 0 22 22" fill="none" xmlns="http://www.w3.org/2000/svg">
<path d="M18.5543 11.8689V8.81274" stroke="#212529" stroke-linecap="round" stroke-linejoin="round"/>
<path d="M2 7.22095V17.7266C2 18.4269 2.57303 19 3.27341 19H18.5543V15.8164" stroke="#212529" stroke-linecap="round" stroke-linejoin="round"/>
<path d="M18.5543 8.81275H3.27341C2.57303 8.81275 2 7.98502 2 6.96629C2 5.94756 2.57303 5.11987 3.27341 5.11987H5.88388" stroke="#212529" stroke-linecap="round" stroke-linejoin="round"/>
<path d="M20.4644 15.8164H16.6442C15.5618 15.8164 14.7341 14.9887 14.7341 13.9063C14.7341 12.8239 15.5618 11.9962 16.6442 11.9962H20.4644V15.8164Z" stroke="#212529" stroke-linecap="round" stroke-linejoin="round"/>
<path d="M4.48316 8.81274L3.27341 5.88392L15.8802 2L18.0449 8.81274" stroke="#212529" stroke-miterlimit="10" stroke-linecap="round" stroke-linejoin="round"/>
<path d="M16.8989 5.05615H18.5543" stroke="#212529" stroke-linecap="round" stroke-linejoin="round"/>
</svg>
