<svg width="77" height="77" viewBox="0 0 77 77" fill="none" xmlns="http://www.w3.org/2000/svg">
<circle cx="38.5" cy="38.5" r="38.5" fill="#CA0012"/>
<path d="M30.1815 45.8073C30.1815 47.9982 35.5945 49.8026 42.4252 49.8026C49.127 49.8026 54.6689 47.9982 54.6689 45.8073" stroke="white" stroke-linecap="round" stroke-linejoin="round"/>
<path d="M54.54 40.7809V50.7047C54.54 52.8957 49.127 54.7 42.2964 54.7C35.5945 54.7 30.0527 52.8957 30.0527 50.7047V40.7809" stroke="white" stroke-linecap="round" stroke-linejoin="round"/>
<path d="M54.54 40.5231C54.54 42.8429 49.127 44.7761 42.2964 44.7761C35.5945 44.7761 30.0527 42.8429 30.0527 40.5231C30.0527 38.2032 35.4657 36.27 42.2964 36.27C49.127 36.27 54.54 38.2032 54.54 40.5231Z" stroke="white" stroke-linecap="round" stroke-linejoin="round"/>
<path d="M30.1815 50.318L20 40.652L41.652 19L53.6379 30.8571L47.8382 36.7855" stroke="white" stroke-linecap="round" stroke-linejoin="round"/>
<path d="M52.2202 32.2747L54.6689 35.6256L51.7047 37.8166" stroke="white" stroke-linecap="round" stroke-linejoin="round"/>
</svg>
