<svg width="77" height="77" viewBox="0 0 77 77" fill="none" xmlns="http://www.w3.org/2000/svg">
<circle cx="38.5" cy="38.5" r="38.5" fill="#CA0012"/>
<path d="M38.5374 29.9305C34.9049 29.6667 31.9711 26.8958 31.9711 23.4652C31.9711 19.9027 35.0447 17 38.8169 17C42.5891 17 45.6628 19.9027 45.6628 23.4652C45.6628 24.9166 45.1039 26.5 44.2657 27.5556" stroke="white" stroke-miterlimit="10" stroke-linecap="round" stroke-linejoin="round"/>
<path d="M50.832 34.0208C50.832 37.5833 47.7583 40.4861 43.9861 40.4861C40.2139 40.4861 37.1403 37.5833 37.1403 34.0208C37.1403 30.4583 40.2139 27.5555 43.9861 27.5555C47.7583 27.4236 50.832 30.4583 50.832 34.0208Z" stroke="white" stroke-miterlimit="10" stroke-linecap="round" stroke-linejoin="round"/>
<path d="M24.9855 45.1041C28.618 44.5763 33.5078 44.1805 36.4417 45.1041L46.0818 48.0069C48.876 48.7986 47.6186 53.0208 44.8244 52.2291L34.7653 49.1943" stroke="white" stroke-linecap="round" stroke-linejoin="round"/>
<path d="M47.3392 49.0625L54.8837 45.632C57.5382 44.3125 59.3543 48.4028 56.6998 49.5903C45.3832 54.8681 46.2216 54.8681 41.7508 54.8681C39.0963 54.8681 35.3242 54.4723 30.2946 52.2292C29.3166 51.7014 27.0812 52.0973 24.9855 52.625" stroke="white" stroke-linecap="round" stroke-linejoin="round"/>
<path d="M24.9855 43.125H18V55H24.9855V43.125Z" stroke="white" stroke-linecap="round" stroke-linejoin="round"/>
</svg>
