<svg width="15" height="15" viewBox="0 0 15 15" fill="none" xmlns="http://www.w3.org/2000/svg">
<g clip-path="url(#clip0_1979_8737)">
<path d="M10.04 5.19733C10.04 5.13287 9.9873 5.08014 9.92285 5.08014L8.95605 5.08453L7.5 6.82038L6.04541 5.086L5.07715 5.0816C5.0127 5.0816 4.95996 5.13287 4.95996 5.19879C4.95996 5.22662 4.97021 5.25299 4.98779 5.27496L6.89355 7.54547L4.98779 9.81452C4.97009 9.83599 4.96027 9.86287 4.95996 9.89069C4.95996 9.95514 5.0127 10.0079 5.07715 10.0079L6.04541 10.0035L7.5 8.26764L8.95459 10.002L9.92139 10.0064C9.98584 10.0064 10.0386 9.95514 10.0386 9.88923C10.0386 9.86139 10.0283 9.83503 10.0107 9.81305L8.10791 7.54401L10.0137 5.2735C10.0312 5.25299 10.04 5.22516 10.04 5.19733Z" fill="#ADB5BD"/>
<path d="M7.5 0.952148C3.87598 0.952148 0.9375 3.89062 0.9375 7.51465C0.9375 11.1387 3.87598 14.0771 7.5 14.0771C11.124 14.0771 14.0625 11.1387 14.0625 7.51465C14.0625 3.89062 11.124 0.952148 7.5 0.952148ZM7.5 12.9639C4.49121 12.9639 2.05078 10.5234 2.05078 7.51465C2.05078 4.50586 4.49121 2.06543 7.5 2.06543C10.5088 2.06543 12.9492 4.50586 12.9492 7.51465C12.9492 10.5234 10.5088 12.9639 7.5 12.9639Z" fill="#ADB5BD"/>
</g>
<defs>
<clipPath id="clip0_1979_8737">
<rect width="15" height="15" fill="white"/>
</clipPath>
</defs>
</svg>
