<svg width="41" height="41" viewBox="0 0 41 41" fill="none" xmlns="http://www.w3.org/2000/svg">
<path d="M40.2885 14.1685L25.1863 29.2708C25.0775 29.3792 24.9001 29.4103 24.6916 29.3576C24.4747 29.3028 24.2422 29.1618 24.0472 28.9668C23.8522 28.7718 23.7112 28.5394 23.6564 28.3224C23.6037 28.114 23.6348 27.9365 23.7432 27.8278L38.8455 12.7255C38.9543 12.6171 39.1317 12.5859 39.3402 12.6386C39.5573 12.695 39.7891 12.8353 39.985 13.029C40.3674 13.4299 40.4994 13.9256 40.2885 14.1685Z" fill="#CA0012"/>
<path d="M38.5827 29.0264L23.4808 13.9245C23.2699 13.6816 23.4021 13.1858 23.7847 12.7846C23.9807 12.5909 24.2126 12.4505 24.4298 12.394C24.6383 12.3412 24.8158 12.3724 24.9245 12.4808L40.0264 27.5826C40.1348 27.6914 40.1659 27.8689 40.1132 28.0774C40.0567 28.2946 39.9163 28.5265 39.7225 28.7225C39.3214 29.1051 38.8256 29.2372 38.5827 29.0264Z" fill="#CA0012"/>
</svg>
