<svg width="22" height="22" viewBox="0 0 22 22" fill="none" xmlns="http://www.w3.org/2000/svg">
<path d="M10.3402 5.06958C10.9828 5.49798 12.0538 6.56898 12.4822 7.56857C13.1248 9.21077 13.0533 10.9957 11.1255 10.1389C10.9827 10.0676 10.8399 9.92475 10.7685 9.78195L9.55479 6.28334C9.05499 4.78395 6.77017 5.49797 7.34137 7.06877L9.05498 12.2096C9.34058 12.995 10.6971 15.2798 12.5535 17.2075" stroke="#212529" stroke-linecap="round" stroke-linejoin="round"/>
<path d="M17.3132 13.9706L11.5531 17.9436L13.6612 21L19.4213 17.027L17.3132 13.9706Z" stroke="#212529" stroke-linecap="round" stroke-linejoin="round"/>
<path d="M7.69836 8.2826C7.34136 8.4254 6.84157 8.49679 6.41317 8.49679C4.19977 8.49679 2.41479 6.71177 2.41479 4.49837C2.41479 2.28498 4.19977 0.5 6.41317 0.5C8.62656 0.5 10.4115 2.28498 10.4115 4.49837C10.4115 5.28377 10.0545 6.06919 9.69754 6.71179" stroke="#212529" stroke-linecap="round" stroke-linejoin="round"/>
<path d="M9.26917 1.85669C9.26917 1.85669 16.0521 4.14148 16.0521 9.56786C15.9807 14.9942 16.3378 14.78 16.3378 14.78" stroke="#212529" stroke-linecap="round" stroke-linejoin="round"/>
</svg>
