<svg width="22" height="22" viewBox="0 0 22 22" fill="none" xmlns="http://www.w3.org/2000/svg">
<path d="M18.383 5.14798C18.383 5.14798 17.9233 5.2771 17.2665 5.2771C15.8217 5.2771 13.7857 4.76054 12.0125 2.24215C11.8154 1.91928 11.29 1.91928 11.093 2.24215C8.99135 5.27713 5.97026 5.6 4.72242 5.14798C4.39404 5.01883 4 5.277 4 5.66445V10.7659C4 17.869 11.29 19.9354 11.3557 20C11.4214 20 11.4214 20 11.4871 20C11.5527 20 11.5527 20 11.6184 20C11.6841 20 18.9741 17.9336 18.9741 10.7659V5.66445C19.1054 5.34158 18.7114 5.01883 18.383 5.14798Z" stroke="#212529" stroke-miterlimit="10" stroke-linecap="round" stroke-linejoin="round"/>
</svg>
