<svg width="22" height="22" viewBox="0 0 22 22" fill="none" xmlns="http://www.w3.org/2000/svg">
<g clip-path="url(#clip0_1951_633)">
<path d="M20.3115 11.6847C22.1944 12.8005 22.1944 16.7757 19.3351 17.2638V18.7283C19.3351 19.077 19.0561 19.4257 18.6377 19.4257H6.57288C6.22418 19.4257 5.87549 19.1468 5.87549 18.7283V18.2402" stroke="#212529" stroke-linecap="round" stroke-linejoin="round"/>
<path d="M16.1968 5.82656L15.8481 4.50154C15.7784 4.15285 15.4297 3.94362 15.081 4.01336L3.71351 6.94241C3.36481 7.01215 3.15563 7.36083 3.22537 7.70953L3.57406 9.03459C0.784497 10.2899 1.97005 14.8927 5.03857 14.6834L5.38726 16.0085C5.457 16.3572 5.80568 16.5664 6.15438 16.4967L17.5219 13.5676C17.8706 13.4979 18.0798 13.1492 18.01 12.8005L17.6613 11.4755C20.3812 10.2202 19.1956 5.61735 16.1968 5.82656Z" stroke="#212529" stroke-linecap="round" stroke-linejoin="round"/>
<path d="M14.3837 10.7084C14.5929 11.4058 14.2442 12.1032 13.6166 12.2426C13.0586 12.3821 12.431 11.9637 12.2218 11.1966C12.0126 10.4992 12.3612 9.80176 12.9889 9.66228C13.6165 9.5228 14.1745 10.011 14.3837 10.7084Z" stroke="#212529" stroke-linecap="round" stroke-linejoin="round"/>
<path d="M10.4783 8.68591C10.6875 9.3833 10.3388 10.0807 9.71116 10.2202C9.15325 10.3597 8.5256 9.94122 8.31638 9.17409C8.10716 8.4767 8.45584 7.7793 9.08349 7.63982C9.71115 7.50034 10.3388 7.98852 10.4783 8.68591Z" stroke="#212529" stroke-linecap="round" stroke-linejoin="round"/>
<path d="M12.5704 6.87268L10.1296 13.0098" stroke="#212529" stroke-linecap="round" stroke-linejoin="round"/>
<path d="M7.47944 11.057L5.73596 11.4755" stroke="#212529" stroke-linecap="round" stroke-linejoin="round"/>
</g>
<defs>
<clipPath id="clip0_1951_633">
<rect width="22" height="22" fill="white"/>
</clipPath>
</defs>
</svg>
