<?xml version="1.0" encoding="utf-8"?><svg width="77" height="77" fill="none" xmlns="http://www.w3.org/2000/svg" viewBox="0 0 77 77"><circle cx="38.5" cy="38.5" r="38.5" fill="#CA0012"/><path d="M56.638 41.115c-12.551-12.43-10.017-9.895-17.86-17.74-.484-.482-1.087-.362-1.932-.362l-13.516.121a1.34 1.34 0 00-1.327 1.328l.12 14.481c0 .362.121.724.362.965.242.242 17.86 17.74 18.223 17.982.603.241 1.086.12 1.448-.242l14.36-14.481c.604-.724.604-1.569.122-2.052z" stroke="#fff" stroke-miterlimit="10" stroke-linecap="round" stroke-linejoin="round"/><path d="M29.847 33.995a3.138 3.138 0 100-6.275 3.138 3.138 0 000 6.275z" stroke="#fff" stroke-miterlimit="10" stroke-linecap="round" stroke-linejoin="round"/><path d="M43.121 48.96c-1.206 1.206-2.896 1.327-3.861.361-.966-.965-.845-2.655.362-3.861 1.207-1.207 2.896-1.328 3.862-.362 1.086.965.844 2.775-.363 3.861zM42.639 39.064c-1.207 1.206-2.896 1.327-3.862.362-.965-.966-.845-2.655.362-3.862 1.207-1.207 2.896-1.328 3.862-.362.965.965.724 2.655-.362 3.862zM48.552 40.995l-14.964 2.413" stroke="#fff" stroke-linecap="round" stroke-linejoin="round"/></svg>