<?xml version="1.0" encoding="utf-8"?><svg width="77" height="77" fill="none" xmlns="http://www.w3.org/2000/svg" viewBox="0 0 77 77"><circle cx="38.5" cy="38.5" r="38.5" fill="#CA0012"/><path d="M30.181 45.807c0 2.191 5.413 3.996 12.244 3.996 6.702 0 12.244-1.805 12.244-3.996" stroke="#fff" stroke-linecap="round" stroke-linejoin="round"/><path d="M54.54 40.78v9.925c0 2.19-5.413 3.995-12.244 3.995-6.702 0-12.243-1.804-12.243-3.995V40.78" stroke="#fff" stroke-linecap="round" stroke-linejoin="round"/><path d="M54.54 40.523c0 2.32-5.413 4.253-12.244 4.253-6.702 0-12.243-1.933-12.243-4.253 0-2.32 5.413-4.253 12.243-4.253 6.831 0 12.244 1.933 12.244 4.253z" stroke="#fff" stroke-linecap="round" stroke-linejoin="round"/><path d="M30.181 50.318L20 40.652 41.652 19l11.986 11.857-5.8 5.928" stroke="#fff" stroke-linecap="round" stroke-linejoin="round"/><path d="M52.22 32.275l2.449 3.35-2.964 2.192" stroke="#fff" stroke-linecap="round" stroke-linejoin="round"/></svg>