<?xml version="1.0" encoding="utf-8"?><svg width="77" height="77" fill="none" xmlns="http://www.w3.org/2000/svg" viewBox="0 0 77 77"><circle cx="38.5" cy="38.5" r="38.5" fill="#CA0012"/><path d="M38.537 29.93c-3.632-.263-6.566-3.034-6.566-6.465 0-3.562 3.074-6.465 6.846-6.465 3.772 0 6.846 2.903 6.846 6.465 0 1.452-.56 3.035-1.397 4.09" stroke="#fff" stroke-miterlimit="10" stroke-linecap="round" stroke-linejoin="round"/><path d="M50.832 34.02c0 3.563-3.074 6.466-6.846 6.466-3.772 0-6.846-2.903-6.846-6.465 0-3.563 3.074-6.466 6.846-6.466 3.772-.131 6.846 2.903 6.846 6.466z" stroke="#fff" stroke-miterlimit="10" stroke-linecap="round" stroke-linejoin="round"/><path d="M24.985 45.104c3.633-.528 8.523-.923 11.457 0l9.64 2.903c2.794.792 1.537 5.014-1.258 4.222l-10.059-3.035" stroke="#fff" stroke-linecap="round" stroke-linejoin="round"/><path d="M47.34 49.063l7.544-3.431c2.654-1.32 4.47 2.77 1.816 3.958-11.317 5.278-10.478 5.278-14.95 5.278-2.654 0-6.426-.396-11.455-2.639-.978-.528-3.214-.132-5.31.396M24.985 43.125H18V55h6.985V43.125z" stroke="#fff" stroke-linecap="round" stroke-linejoin="round"/></svg>