<?xml version="1.0" encoding="utf-8"?><svg width="18" height="18" fill="none" xmlns="http://www.w3.org/2000/svg" viewBox="0 0 18 18"><path d="M12.808 10.2c-.126-.125-.378-.125-.567 0 0 0-1.071 1.072-1.197 1.135l-.063.063c-1.135.567-5.294-3.844-4.475-4.663L7.704 5.6c.126-.126.126-.378 0-.567L3.859 1.126A.478.478 0 003.607 1c-.126 0-.189.063-.252.126-1.953 1.89-5.041 3.781 2.206 11.154 7.121 7.248 9.138 4.538 11.154 2.395a.384.384 0 000-.504l-3.907-3.97z" stroke="#fff" stroke-miterlimit="10" stroke-linecap="round" stroke-linejoin="round"/></svg>