<?xml version="1.0" encoding="utf-8"?><svg width="15" height="15" fill="none" xmlns="http://www.w3.org/2000/svg" viewBox="0 0 15 15"><g clip-path="url(#aqclip0_1979_8737)" fill="#ADB5BD"><path d="M10.04 5.197a.117.117 0 00-.117-.117l-.967.005L7.5 6.82 6.045 5.086l-.968-.004a.117.117 0 00-.117.117c0 .028.01.054.028.076l1.906 2.27-1.906 2.27a.118.118 0 00.09.193l.967-.005L7.5 8.269l1.455 1.734.966.004a.117.117 0 00.118-.117.122.122 0 00-.028-.076L8.108 7.544l1.906-2.27a.118.118 0 00.026-.077z"/><path d="M7.5.952a6.563 6.563 0 100 13.126A6.563 6.563 0 007.5.952zm0 12.012a5.45 5.45 0 010-10.899 5.45 5.45 0 010 10.899z"/></g><defs><clipPath id="aqclip0_1979_8737"><path fill="#fff" d="M0 0h15v15H0z"/></clipPath></defs></svg>