<?xml version="1.0" encoding="utf-8"?><svg width="41" height="41" fill="none" xmlns="http://www.w3.org/2000/svg" viewBox="0 0 41 41"><path d="M40.288 14.168L25.186 29.271c-.108.108-.286.14-.494.087a1.463 1.463 0 01-.645-.391 1.463 1.463 0 01-.39-.645c-.053-.208-.022-.386.086-.494l15.103-15.102c.108-.109.286-.14.494-.087.217.056.45.196.645.39.382.4.514.897.303 1.14z" fill="#CA0012"/><path d="M38.583 29.026L23.48 13.925c-.211-.243-.079-.74.304-1.14.196-.194.428-.335.645-.391.208-.053.386-.022.494.087l15.102 15.102c.109.108.14.286.087.494-.056.218-.197.45-.39.645-.402.383-.897.515-1.14.304z" fill="#CA0012"/></svg>