<?xml version="1.0" encoding="utf-8"?><svg width="41" height="41" fill="none" xmlns="http://www.w3.org/2000/svg" viewBox="0 0 41 41"><path d="M40.475 12.226H21.524c-.136 0-.267-.109-.365-.302A1.75 1.75 0 0121 11.16c0-.288.057-.564.16-.765.097-.193.228-.301.364-.301h18.951c.137 0 .268.108.365.301.101.202.159.477.16.765-.012.579-.24 1.043-.525 1.066zM40.475 30.11h-18.95c-.285-.023-.513-.488-.525-1.067a1.79 1.79 0 01.16-.765c.097-.193.228-.301.364-.302h18.951c.137 0 .268.109.365.302.101.202.159.477.16.765-.012.58-.24 1.044-.525 1.067zM40.475 21.167h-18.95c-.14.002-.272-.116-.365-.324-.1-.194-.158-.461-.16-.742.002-.281.06-.549.16-.742.093-.208.226-.326.364-.325h18.951c.14-.001.272.117.365.325.1.193.158.46.16.742.001.289-.057.566-.16.765-.095.2-.228.309-.365.301z" fill="#CA0012"/></svg>