<?xml version="1.0" encoding="utf-8"?><svg width="22" height="22" fill="none" xmlns="http://www.w3.org/2000/svg" viewBox="0 0 22 22"><path d="M10.34 5.07c.643.428 1.714 1.499 2.142 2.499.643 1.642.571 3.427-1.356 2.57a.86.86 0 01-.357-.357L9.554 6.283c-.5-1.5-2.785-.785-2.214.786l1.714 5.14c.286.786 1.642 3.07 3.498 4.998M17.313 13.97l-5.76 3.974L13.661 21l5.76-3.973-2.108-3.056z" stroke="#212529" stroke-linecap="round" stroke-linejoin="round"/><path d="M7.698 8.283c-.357.142-.856.214-1.285.214a3.992 3.992 0 01-3.998-3.999A3.992 3.992 0 016.413.5a3.992 3.992 0 013.998 3.998c0 .786-.356 1.571-.713 2.214" stroke="#212529" stroke-linecap="round" stroke-linejoin="round"/><path d="M9.27 1.857s6.782 2.284 6.782 7.71c-.071 5.427.286 5.213.286 5.213" stroke="#212529" stroke-linecap="round" stroke-linejoin="round"/></svg>