<?xml version="1.0" encoding="utf-8"?><svg width="22" height="22" fill="none" xmlns="http://www.w3.org/2000/svg" viewBox="0 0 22 22"><g clip-path="url(#bbclip0_1951_633)" stroke="#212529" stroke-linecap="round" stroke-linejoin="round"><path d="M20.311 11.685c1.883 1.115 1.883 5.09-.976 5.579v1.464a.699.699 0 01-.697.698H6.573a.699.699 0 01-.698-.698v-.488"/><path d="M16.197 5.827l-.349-1.325c-.07-.35-.418-.558-.767-.489L3.714 6.943c-.35.07-.558.418-.489.767l.35 1.325c-2.79 1.255-1.605 5.858 1.464 5.648l.348 1.326c.07.348.419.557.767.488l11.368-2.93c.349-.07.558-.418.488-.767l-.349-1.325c2.72-1.255 1.535-5.858-1.464-5.648z"/><path d="M14.384 10.708c.209.698-.14 1.395-.767 1.535-.558.14-1.186-.28-1.395-1.046-.21-.698.14-1.395.767-1.535.627-.14 1.185.349 1.395 1.046zM10.478 8.686c.21.697-.14 1.395-.767 1.534-.558.14-1.185-.279-1.395-1.046-.209-.697.14-1.395.767-1.534.628-.14 1.256.349 1.395 1.046zM12.57 6.873l-2.44 6.137M7.48 11.057l-1.744.418"/></g><defs><clipPath id="bbclip0_1951_633"><path fill="#fff" d="M0 0h22v22H0z"/></clipPath></defs></svg>