<?xml version="1.0" encoding="utf-8"?><svg width="22" height="22" fill="none" xmlns="http://www.w3.org/2000/svg" viewBox="0 0 22 22"><path d="M18.554 11.869V8.813M2 7.221v10.506c0 .7.573 1.273 1.273 1.273h15.281v-3.184" stroke="#212529" stroke-linecap="round" stroke-linejoin="round"/><path d="M18.554 8.813H3.274C2.572 8.813 2 7.985 2 6.966c0-1.018.573-1.846 1.273-1.846h2.61M20.464 15.816h-3.82a1.876 1.876 0 01-1.91-1.91c0-1.082.828-1.91 1.91-1.91h3.82v3.82z" stroke="#212529" stroke-linecap="round" stroke-linejoin="round"/><path d="M4.483 8.813l-1.21-2.93L15.88 2l2.165 6.813" stroke="#212529" stroke-miterlimit="10" stroke-linecap="round" stroke-linejoin="round"/><path d="M16.899 5.056h1.655" stroke="#212529" stroke-linecap="round" stroke-linejoin="round"/></svg>