<?xml version="1.0" encoding="utf-8"?><svg viewBox="0 0 965 130" xmlns="http://www.w3.org/2000/svg" xmlns:xlink="http://www.w3.org/1999/xlink"><style>:root>svg{display:none}:root>svg:target{display:block}</style><svg fill="none" viewBox="0 0 14 8" id="ArrowDown" xmlns="http://www.w3.org/2000/svg"><path d="M1 1l6 6 6-6" stroke="#212529"/></svg><svg fill="none" viewBox="0 0 20 11" id="ArrowDownWhite" xmlns="http://www.w3.org/2000/svg"><path d="M1 1l9 9 9-9" stroke="#fff"/></svg><svg fill="none" viewBox="0 0 1 130" id="BigLine" xmlns="http://www.w3.org/2000/svg"><path stroke="#fff" d="M.5 0v130"/></svg><svg fill="none" viewBox="0 0 345 1" id="BigLine1" xmlns="http://www.w3.org/2000/svg"><path stroke="#fff" d="M0 .5h345"/></svg><svg fill="none" viewBox="0 0 965 1" id="LineGift" xmlns="http://www.w3.org/2000/svg"><path stroke="#C2C2C2" d="M0 .5h965"/></svg><svg fill="none" viewBox="0 0 77 77" id="advantages1" xmlns="http://www.w3.org/2000/svg"><circle cx="38.5" cy="38.5" r="38.5" fill="#CA0012"/><path d="M38.537 29.93c-3.632-.263-6.566-3.034-6.566-6.465 0-3.562 3.074-6.465 6.846-6.465 3.772 0 6.846 2.903 6.846 6.465 0 1.452-.56 3.035-1.397 4.09" stroke="#fff" stroke-miterlimit="10" stroke-linecap="round" stroke-linejoin="round"/><path d="M50.832 34.02c0 3.563-3.074 6.466-6.846 6.466-3.772 0-6.846-2.903-6.846-6.465 0-3.563 3.074-6.466 6.846-6.466 3.772-.131 6.846 2.903 6.846 6.466z" stroke="#fff" stroke-miterlimit="10" stroke-linecap="round" stroke-linejoin="round"/><path d="M24.985 45.104c3.633-.528 8.523-.923 11.457 0l9.64 2.903c2.794.792 1.537 5.014-1.258 4.222l-10.059-3.035" stroke="#fff" stroke-linecap="round" stroke-linejoin="round"/><path d="M47.34 49.063l7.544-3.431c2.654-1.32 4.47 2.77 1.816 3.958-11.317 5.278-10.478 5.278-14.95 5.278-2.654 0-6.426-.396-11.455-2.639-.978-.528-3.214-.132-5.31.396M24.985 43.125H18V55h6.985V43.125z" stroke="#fff" stroke-linecap="round" stroke-linejoin="round"/></svg><svg fill="none" viewBox="0 0 77 77" id="advantages2" xmlns="http://www.w3.org/2000/svg"><circle cx="38.5" cy="38.5" r="38.5" fill="#CA0012"/><path d="M53.77 38.545v-5.68M23 29.905v19.528a2.374 2.374 0 002.367 2.367h28.404v-5.917" stroke="#fff" stroke-linecap="round" stroke-linejoin="round"/><path d="M53.77 32.864H25.368c-1.302 0-2.367-1.538-2.367-3.432C23 27.54 24.065 26 25.367 26h28.404M57.321 45.883h-7.1c-2.013 0-3.551-1.539-3.551-3.55 0-2.013 1.538-3.551 3.55-3.551h7.101v7.1z" stroke="#fff" stroke-linecap="round" stroke-linejoin="round"/><path d="M53.77 29.314H26.55" stroke="#fff" stroke-miterlimit="10" stroke-linecap="round" stroke-linejoin="round"/></svg><svg fill="none" viewBox="0 0 77 77" id="advantages3" xmlns="http://www.w3.org/2000/svg"><circle cx="38.5" cy="38.5" r="38.5" fill="#CA0012"/><path d="M25.354 40.746v15.917h28.057V40.746M42.755 37.913h13.489v-8.228H22.656v8.228h13.49" stroke="#fff" stroke-linecap="round" stroke-linejoin="round"/><path d="M39.383 29.685s-15.378-5.935-9.038-10.79c5.935-4.722 9.038 10.79 9.038 10.79zM39.383 29.685s2.293-13.219 7.688-9.442c5.126 3.507-7.688 9.442-7.688 9.442z" stroke="#fff" stroke-linecap="round" stroke-linejoin="round"/><path d="M42.755 29.685h-6.61v26.978h6.61V29.685z" stroke="#fff" stroke-miterlimit="10" stroke-linecap="round" stroke-linejoin="round"/></svg><svg fill="none" viewBox="0 0 77 77" id="advantages4" xmlns="http://www.w3.org/2000/svg"><circle cx="38.5" cy="38.5" r="38.5" fill="#CA0012"/><path d="M56.638 41.115c-12.551-12.43-10.017-9.895-17.86-17.74-.484-.482-1.087-.362-1.932-.362l-13.516.121a1.34 1.34 0 00-1.327 1.328l.12 14.481c0 .362.121.724.362.965.242.242 17.86 17.74 18.223 17.982.603.241 1.086.12 1.448-.242l14.36-14.481c.604-.724.604-1.569.122-2.052z" stroke="#fff" stroke-miterlimit="10" stroke-linecap="round" stroke-linejoin="round"/><path d="M29.847 33.995a3.138 3.138 0 100-6.275 3.138 3.138 0 000 6.275z" stroke="#fff" stroke-miterlimit="10" stroke-linecap="round" stroke-linejoin="round"/><path d="M43.121 48.96c-1.206 1.206-2.896 1.327-3.861.361-.966-.965-.845-2.655.362-3.861 1.207-1.207 2.896-1.328 3.862-.362 1.086.965.844 2.775-.363 3.861zM42.639 39.064c-1.207 1.206-2.896 1.327-3.862.362-.965-.966-.845-2.655.362-3.862 1.207-1.207 2.896-1.328 3.862-.362.965.965.724 2.655-.362 3.862zM48.552 40.995l-14.964 2.413" stroke="#fff" stroke-linecap="round" stroke-linejoin="round"/></svg><svg fill="none" viewBox="0 0 77 77" id="advantages5" xmlns="http://www.w3.org/2000/svg"><circle cx="38.5" cy="38.5" r="38.5" fill="#CA0012"/><path d="M51.89 25.946s-.828.244-2.01.244c-2.601 0-6.266-.976-9.458-5.733-.354-.61-1.3-.61-1.655 0-3.783 5.733-9.22 6.343-11.467 5.49-.59-.245-1.3.243-1.3.975v9.636C26 49.975 39.122 53.878 39.24 54h.473c.118 0 13.24-3.903 13.24-17.442v-9.636c.237-.61-.473-1.22-1.064-.976z" stroke="#fff" stroke-miterlimit="10" stroke-linecap="round" stroke-linejoin="round"/></svg><svg fill="none" viewBox="0 0 77 77" id="advantages6" xmlns="http://www.w3.org/2000/svg"><circle cx="38.5" cy="38.5" r="38.5" fill="#CA0012"/><path d="M30.181 45.807c0 2.191 5.413 3.996 12.244 3.996 6.702 0 12.244-1.805 12.244-3.996" stroke="#fff" stroke-linecap="round" stroke-linejoin="round"/><path d="M54.54 40.78v9.925c0 2.19-5.413 3.995-12.244 3.995-6.702 0-12.243-1.804-12.243-3.995V40.78" stroke="#fff" stroke-linecap="round" stroke-linejoin="round"/><path d="M54.54 40.523c0 2.32-5.413 4.253-12.244 4.253-6.702 0-12.243-1.933-12.243-4.253 0-2.32 5.413-4.253 12.243-4.253 6.831 0 12.244 1.933 12.244 4.253z" stroke="#fff" stroke-linecap="round" stroke-linejoin="round"/><path d="M30.181 50.318L20 40.652 41.652 19l11.986 11.857-5.8 5.928" stroke="#fff" stroke-linecap="round" stroke-linejoin="round"/><path d="M52.22 32.275l2.449 3.35-2.964 2.192" stroke="#fff" stroke-linecap="round" stroke-linejoin="round"/></svg><svg fill="none" viewBox="0 0 10 10" id="advantages_dot" xmlns="http://www.w3.org/2000/svg"><path opacity=".3" stroke="#CA0012" d="M.5.5h9v9h-9z"/></svg><svg fill="none" viewBox="0 0 10 10" id="advantages_dot_active" xmlns="http://www.w3.org/2000/svg"><path fill="#CA0012" d="M0 0h10v10H0z"/></svg><svg fill="none" viewBox="0 0 18 18" id="call" xmlns="http://www.w3.org/2000/svg"><path d="M12.808 10.2c-.126-.125-.378-.125-.567 0 0 0-1.071 1.072-1.197 1.135l-.063.063c-1.135.567-5.294-3.844-4.475-4.663L7.704 5.6c.126-.126.126-.378 0-.567L3.859 1.126A.478.478 0 003.607 1c-.126 0-.189.063-.252.126-1.953 1.89-5.041 3.781 2.206 11.154 7.121 7.248 9.138 4.538 11.154 2.395a.384.384 0 000-.504l-3.907-3.97z" stroke="#fff" stroke-miterlimit="10" stroke-linecap="round" stroke-linejoin="round"/></svg><svg fill="none" viewBox="0 0 18 18" id="call-gray" xmlns="http://www.w3.org/2000/svg"><path d="M12.808 10.2c-.126-.125-.378-.125-.567 0 0 0-1.071 1.072-1.197 1.135l-.063.063c-1.135.567-5.294-3.844-4.475-4.663L7.704 5.6c.126-.126.126-.378 0-.567L3.859 1.126A.478.478 0 003.607 1c-.126 0-.189.063-.252.126-1.953 1.89-5.041 3.781 2.206 11.154 7.121 7.248 9.138 4.538 11.154 2.395a.384.384 0 000-.504l-3.907-3.97z" stroke="#212529" stroke-miterlimit="10" stroke-linecap="round" stroke-linejoin="round"/></svg><svg fill="none" viewBox="0 0 41 41" id="close" xmlns="http://www.w3.org/2000/svg"><path d="M40.288 14.168L25.186 29.271c-.108.108-.286.14-.494.087a1.463 1.463 0 01-.645-.391 1.463 1.463 0 01-.39-.645c-.053-.208-.022-.386.086-.494l15.103-15.102c.108-.109.286-.14.494-.087.217.056.45.196.645.39.382.4.514.897.303 1.14z" fill="#CA0012"/><path d="M38.583 29.026L23.48 13.925c-.211-.243-.079-.74.304-1.14.196-.194.428-.335.645-.391.208-.053.386-.022.494.087l15.102 15.102c.109.108.14.286.087.494-.056.218-.197.45-.39.645-.402.383-.897.515-1.14.304z" fill="#CA0012"/></svg><svg fill="none" viewBox="0 0 15 15" id="close-circle" xmlns="http://www.w3.org/2000/svg"><g clip-path="url(#aqclip0_1979_8737)" fill="#ADB5BD"><path d="M10.04 5.197a.117.117 0 00-.117-.117l-.967.005L7.5 6.82 6.045 5.086l-.968-.004a.117.117 0 00-.117.117c0 .028.01.054.028.076l1.906 2.27-1.906 2.27a.118.118 0 00.09.193l.967-.005L7.5 8.269l1.455 1.734.966.004a.117.117 0 00.118-.117.122.122 0 00-.028-.076L8.108 7.544l1.906-2.27a.118.118 0 00.026-.077z"/><path d="M7.5.952a6.563 6.563 0 100 13.126A6.563 6.563 0 007.5.952zm0 12.012a5.45 5.45 0 010-10.899 5.45 5.45 0 010 10.899z"/></g><defs><clipPath id="aqclip0_1979_8737"><path fill="#fff" d="M0 0h15v15H0z"/></clipPath></defs></svg><svg fill="none" viewBox="0 0 41 41" id="close_menu" xmlns="http://www.w3.org/2000/svg"><path d="M40.288 14.168L25.186 29.271c-.108.108-.286.14-.494.087a1.463 1.463 0 01-.645-.391 1.463 1.463 0 01-.39-.645c-.053-.208-.022-.386.086-.494l15.103-15.102c.108-.109.286-.14.494-.087.217.056.45.196.645.39.382.4.514.897.303 1.14z" fill="#CA0012"/><path d="M38.583 29.026L23.48 13.925c-.211-.243-.079-.74.304-1.14.196-.194.428-.335.645-.391.208-.053.386-.022.494.087l15.102 15.102c.109.108.14.286.087.494-.056.218-.197.45-.39.645-.402.383-.897.515-1.14.304z" fill="#CA0012"/></svg><svg fill="none" viewBox="0 0 359 27" id="gift_rectangle" xmlns="http://www.w3.org/2000/svg"><path opacity=".1" d="M8.955 0H358.5l-8.955 27H0L8.955 0z" fill="#CA0012"/></svg><svg fill="none" viewBox="0 0 2 79" id="line" xmlns="http://www.w3.org/2000/svg"><path stroke="#fff" stroke-width="2" d="M1 .484v78"/></svg><svg fill="none" viewBox="0 0 16 16" id="map-pin" xmlns="http://www.w3.org/2000/svg"><path d="M14 6.667c0 4.666-6 8.666-6 8.666s-6-4-6-8.666a6 6 0 1112 0z" stroke="#fff" stroke-linecap="round" stroke-linejoin="round"/><path d="M8 8.667a2 2 0 100-4 2 2 0 000 4z" stroke="#fff" stroke-linecap="round" stroke-linejoin="round"/></svg><svg fill="none" viewBox="0 0 16 16" id="map-pin-gray" xmlns="http://www.w3.org/2000/svg"><path d="M14 6.667c0 4.666-6 8.666-6 8.666s-6-4-6-8.666a6 6 0 1112 0z" stroke="#212529" stroke-linecap="round" stroke-linejoin="round"/><path d="M8 8.667a2 2 0 100-4 2 2 0 000 4z" stroke="#212529" stroke-linecap="round" stroke-linejoin="round"/></svg><svg fill="none" viewBox="0 0 41 41" id="memu" xmlns="http://www.w3.org/2000/svg"><path d="M40.475 12.226H21.524c-.136 0-.267-.109-.365-.302A1.75 1.75 0 0121 11.16c0-.288.057-.564.16-.765.097-.193.228-.301.364-.301h18.951c.137 0 .268.108.365.301.101.202.159.477.16.765-.012.579-.24 1.043-.525 1.066zM40.475 30.11h-18.95c-.285-.023-.513-.488-.525-1.067a1.79 1.79 0 01.16-.765c.097-.193.228-.301.364-.302h18.951c.137 0 .268.109.365.302.101.202.159.477.16.765-.012.58-.24 1.044-.525 1.067zM40.475 21.167h-18.95c-.14.002-.272-.116-.365-.324-.1-.194-.158-.461-.16-.742.002-.281.06-.549.16-.742.093-.208.226-.326.364-.325h18.951c.14-.001.272.117.365.325.1.193.158.46.16.742.001.289-.057.566-.16.765-.095.2-.228.309-.365.301z" fill="#CA0012"/></svg><svg fill="none" viewBox="0 0 22 22" id="specification1" xmlns="http://www.w3.org/2000/svg"><path d="M18.554 11.869V8.813M2 7.221v10.506c0 .7.573 1.273 1.273 1.273h15.281v-3.184" stroke="#212529" stroke-linecap="round" stroke-linejoin="round"/><path d="M18.554 8.813H3.274C2.572 8.813 2 7.985 2 6.966c0-1.018.573-1.846 1.273-1.846h2.61M20.464 15.816h-3.82a1.876 1.876 0 01-1.91-1.91c0-1.082.828-1.91 1.91-1.91h3.82v3.82z" stroke="#212529" stroke-linecap="round" stroke-linejoin="round"/><path d="M4.483 8.813l-1.21-2.93L15.88 2l2.165 6.813" stroke="#212529" stroke-miterlimit="10" stroke-linecap="round" stroke-linejoin="round"/><path d="M16.899 5.056h1.655" stroke="#212529" stroke-linecap="round" stroke-linejoin="round"/></svg><svg fill="none" viewBox="0 0 22 22" id="specification2" xmlns="http://www.w3.org/2000/svg"><path d="M18.383 5.148s-.46.13-1.116.13c-1.445 0-3.481-.517-5.255-3.036-.197-.323-.722-.323-.919 0C8.991 5.277 5.97 5.6 4.723 5.148c-.329-.13-.723.129-.723.516v5.102c0 7.103 7.29 9.17 7.356 9.234h.262c.066 0 7.356-2.066 7.356-9.234V5.664c.131-.322-.263-.645-.591-.516z" stroke="#212529" stroke-miterlimit="10" stroke-linecap="round" stroke-linejoin="round"/></svg><svg fill="none" viewBox="0 0 22 22" id="specification3" xmlns="http://www.w3.org/2000/svg"><path d="M15.672.5v3.534h3.535" stroke="#212529" stroke-miterlimit="10" stroke-linecap="round" stroke-linejoin="round"/><path d="M19.207 20.293A.708.708 0 0118.5 21H5.069c-.353 0-.707-.353-.707-.707V1.207c0-.354.283-.707.707-.707h10.603c.212 0 .283.07.425.212l2.898 2.898c.141.142.212.283.212.424v16.26zM16.238 10.396H7.33M16.238 13.224H7.33M16.238 16.052H7.33M12.28 7.569H7.33" stroke="#212529" stroke-miterlimit="10" stroke-linecap="round" stroke-linejoin="round"/></svg><svg fill="none" viewBox="0 0 22 22" id="specification4" xmlns="http://www.w3.org/2000/svg"><path d="M10.34 5.07c.643.428 1.714 1.499 2.142 2.499.643 1.642.571 3.427-1.356 2.57a.86.86 0 01-.357-.357L9.554 6.283c-.5-1.5-2.785-.785-2.214.786l1.714 5.14c.286.786 1.642 3.07 3.498 4.998M17.313 13.97l-5.76 3.974L13.661 21l5.76-3.973-2.108-3.056z" stroke="#212529" stroke-linecap="round" stroke-linejoin="round"/><path d="M7.698 8.283c-.357.142-.856.214-1.285.214a3.992 3.992 0 01-3.998-3.999A3.992 3.992 0 016.413.5a3.992 3.992 0 013.998 3.998c0 .786-.356 1.571-.713 2.214" stroke="#212529" stroke-linecap="round" stroke-linejoin="round"/><path d="M9.27 1.857s6.782 2.284 6.782 7.71c-.071 5.427.286 5.213.286 5.213" stroke="#212529" stroke-linecap="round" stroke-linejoin="round"/></svg><svg fill="none" viewBox="0 0 22 22" id="specification5" xmlns="http://www.w3.org/2000/svg"><g clip-path="url(#bbclip0_1951_633)" stroke="#212529" stroke-linecap="round" stroke-linejoin="round"><path d="M20.311 11.685c1.883 1.115 1.883 5.09-.976 5.579v1.464a.699.699 0 01-.697.698H6.573a.699.699 0 01-.698-.698v-.488"/><path d="M16.197 5.827l-.349-1.325c-.07-.35-.418-.558-.767-.489L3.714 6.943c-.35.07-.558.418-.489.767l.35 1.325c-2.79 1.255-1.605 5.858 1.464 5.648l.348 1.326c.07.348.419.557.767.488l11.368-2.93c.349-.07.558-.418.488-.767l-.349-1.325c2.72-1.255 1.535-5.858-1.464-5.648z"/><path d="M14.384 10.708c.209.698-.14 1.395-.767 1.535-.558.14-1.186-.28-1.395-1.046-.21-.698.14-1.395.767-1.535.627-.14 1.185.349 1.395 1.046zM10.478 8.686c.21.697-.14 1.395-.767 1.534-.558.14-1.185-.279-1.395-1.046-.209-.697.14-1.395.767-1.534.628-.14 1.256.349 1.395 1.046zM12.57 6.873l-2.44 6.137M7.48 11.057l-1.744.418"/></g><defs><clipPath id="bbclip0_1951_633"><path fill="#fff" d="M0 0h22v22H0z"/></clipPath></defs></svg></svg>